solid Heximon
facet normal 0.707106781186545 -0.70710678118655 0.0
outer loop
vertex 435.22864690117 -187.985925903716 2.99999999999999
vertex 432.606489628304 -191.403187793295 175.0
vertex 432.606489628304 -191.403187793295 2.99999999999999
endloop
endfacet
facet normal 0.866025403784443 -0.499999999999993 0.0
outer loop
vertex 432.606489628304 -191.403187793295 175.0
vertex 435.22864690117 -187.985925903716 2.99999999999999
vertex 435.22864690117 -187.985925903716 175.0
endloop
endfacet
facet normal 0.258819045102522 0.965925826289068 0.0
outer loop
vertex 442.625394546556 -215.590963927064 175.0
vertex 446.895908790748 -216.153187793295 2.99999999999999
vertex 442.625394546556 -215.590963927064 2.99999999999999
endloop
endfacet
facet normal 0.0 1.0 0.0
outer loop
vertex 446.895908790748 -216.153187793295 2.99999999999999
vertex 442.625394546556 -215.590963927064 175.0
vertex 446.895908790748 -216.153187793295 175.0
endloop
endfacet
facet normal -0.707106781186546 0.707106781186549 0.0
outer loop
vertex 432.76791530264 -185.525194305187 175.0
vertex 429.592721223135 -189.663187793295 0.0
vertex 429.592721223135 -189.663187793295 175.0
endloop
endfacet
facet normal -0.866025403784439 0.5 0.0
outer loop
vertex 429.592721223135 -189.663187793295 0.0
vertex 432.76791530264 -185.525194305187 175.0
vertex 432.76791530264 -185.525194305187 0.0
endloop
endfacet
facet normal 0.965925826289069 0.25881904510252 0.0
outer loop
vertex 466.195106800003 -194.481983272146 0.0
vertex 466.875908790748 -199.653187793295 175.0
vertex 466.875908790748 -199.653187793295 0.0
endloop
endfacet
facet normal 1.0 2.76244406765054e-16 0.0
outer loop
vertex 466.875908790748 -199.653187793295 175.0
vertex 466.195106800003 -194.481983272146 0.0
vertex 466.195106800003 -194.481983272146 175.0
endloop
endfacet
facet normal -0.965925826289068 0.258819045102521 0.0
outer loop
vertex 427.596710781492 -194.481983272146 175.0
vertex 426.915908790748 -199.653187793295 0.0
vertex 426.915908790748 -199.653187793295 175.0
endloop
endfacet
facet normal -1.0 -2.76244406765054e-16 0.0
outer loop
vertex 426.915908790748 -199.653187793295 0.0
vertex 427.596710781492 -194.481983272146 175.0
vertex 427.596710781492 -194.481983272146 0.0
endloop
endfacet
facet normal -0.866025403784439 0.5 0.0
outer loop
vertex 429.592721223135 -189.663187793295 175.0
vertex 427.596710781492 -194.481983272146 0.0
vertex 427.596710781492 -194.481983272146 175.0
endloop
endfacet
facet normal -0.965925826289068 0.258819045102521 0.0
outer loop
vertex 427.596710781492 -194.481983272146 0.0
vertex 429.592721223135 -189.663187793295 175.0
vertex 429.592721223135 -189.663187793295 0.0
endloop
endfacet
facet normal -0.866025403784439 -0.499999999999999 0.0
outer loop
vertex 429.592721223135 -209.643187793295 175.0
vertex 432.76791530264 -213.781181281402 0.0
vertex 432.76791530264 -213.781181281402 175.0
endloop
endfacet
facet normal -0.707106781186549 -0.707106781186546 0.0
outer loop
vertex 432.76791530264 -213.781181281402 0.0
vertex 429.592721223135 -209.643187793295 175.0
vertex 429.592721223135 -209.643187793295 0.0
endloop
endfacet
facet normal 0.707106781186545 -0.70710678118655 0.0
outer loop
vertex 461.023902278855 -213.781181281402 175.0
vertex 456.885908790748 -216.956375360908 0.0
vertex 461.023902278855 -213.781181281402 0.0
endloop
endfacet
facet normal 0.499999999999999 -0.866025403784439 0.0
outer loop
vertex 456.885908790748 -216.956375360908 0.0
vertex 461.023902278855 -213.781181281402 175.0
vertex 456.885908790748 -216.956375360908 175.0
endloop
endfacet
facet normal -0.258819045102522 -0.965925826289068 0.0
outer loop
vertex 451.166423034939 -183.715411659525 175.0
vertex 446.895908790748 -183.153187793295 2.99999999999999
vertex 451.166423034939 -183.715411659525 2.99999999999999
endloop
endfacet
facet normal 0.0 -1.0 0.0
outer loop
vertex 446.895908790748 -183.153187793295 2.99999999999999
vertex 451.166423034939 -183.715411659525 175.0
vertex 446.895908790748 -183.153187793295 175.0
endloop
endfacet
facet normal -0.5 -0.866025403784439 0.0
outer loop
vertex 455.145908790748 -185.363768630851 175.0
vertex 451.166423034939 -183.715411659525 2.99999999999999
vertex 455.145908790748 -185.363768630851 2.99999999999999
endloop
endfacet
facet normal -0.258819045102522 -0.965925826289068 0.0
outer loop
vertex 451.166423034939 -183.715411659525 2.99999999999999
vertex 455.145908790748 -185.363768630851 175.0
vertex 451.166423034939 -183.715411659525 175.0
endloop
endfacet
facet normal 0.965925826289067 0.258819045102526 0.0
outer loop
vertex 430.958132656978 -203.923702037486 2.99999999999999
vertex 432.606489628304 -207.903187793295 175.0
vertex 432.606489628304 -207.903187793295 2.99999999999999
endloop
endfacet
facet normal 0.866025403784441 0.499999999999995 0.0
outer loop
vertex 432.606489628304 -207.903187793295 175.0
vertex 430.958132656978 -203.923702037486 2.99999999999999
vertex 430.958132656978 -203.923702037486 175.0
endloop
endfacet
facet normal 0.965925826289068 -0.258819045102521 0.0
outer loop
vertex 466.195106800003 -204.824392314443 0.0
vertex 464.199096358361 -209.643187793295 175.0
vertex 464.199096358361 -209.643187793295 0.0
endloop
endfacet
facet normal 0.866025403784439 -0.499999999999999 0.0
outer loop
vertex 464.199096358361 -209.643187793295 175.0
vertex 466.195106800003 -204.824392314443 0.0
vertex 466.195106800003 -204.824392314443 175.0
endloop
endfacet
facet normal 1.0 2.76244406765054e-16 0.0
outer loop
vertex 466.875908790748 -199.653187793295 0.0
vertex 466.195106800003 -204.824392314443 175.0
vertex 466.195106800003 -204.824392314443 0.0
endloop
endfacet
facet normal 0.965925826289068 -0.258819045102521 0.0
outer loop
vertex 466.195106800003 -204.824392314443 175.0
vertex 466.875908790748 -199.653187793295 0.0
vertex 466.875908790748 -199.653187793295 175.0
endloop
endfacet
facet normal -0.258819045102522 0.965925826289068 0.0
outer loop
vertex 441.724704269599 -180.353989784039 175.0
vertex 446.895908790748 -179.673187793295 0.0
vertex 441.724704269599 -180.353989784039 0.0
endloop
endfacet
facet normal 0.0 1.0 0.0
outer loop
vertex 446.895908790748 -179.673187793295 0.0
vertex 441.724704269599 -180.353989784039 175.0
vertex 446.895908790748 -179.673187793295 175.0
endloop
endfacet
facet normal 0.96592582628907 -0.258819045102516 0.0
outer loop
vertex 430.958132656978 -195.382673549103 2.99999999999999
vertex 430.395908790748 -199.653187793295 175.0
vertex 430.395908790748 -199.653187793295 2.99999999999999
endloop
endfacet
facet normal 1.0 -3.4753328593023e-16 0.0
outer loop
vertex 430.395908790748 -199.653187793295 175.0
vertex 430.958132656978 -195.382673549103 2.99999999999999
vertex 430.958132656978 -195.382673549103 175.0
endloop
endfacet
facet normal 0.707106781186551 0.707106781186544 0.0
outer loop
vertex 435.22864690117 -211.320449682873 175.0
vertex 438.645908790748 -213.942606955738 2.99999999999999
vertex 435.22864690117 -211.320449682873 2.99999999999999
endloop
endfacet
facet normal 0.5 0.866025403784439 0.0
outer loop
vertex 438.645908790748 -213.942606955738 2.99999999999999
vertex 435.22864690117 -211.320449682873 175.0
vertex 438.645908790748 -213.942606955738 175.0
endloop
endfacet
facet normal 0.0 1.0 0.0
outer loop
vertex 446.895908790748 -179.673187793295 175.0
vertex 452.067113311896 -180.353989784039 0.0
vertex 446.895908790748 -179.673187793295 0.0
endloop
endfacet
facet normal 0.258819045102519 0.965925826289069 0.0
outer loop
vertex 452.067113311896 -180.353989784039 0.0
vertex 446.895908790748 -179.673187793295 175.0
vertex 452.067113311896 -180.353989784039 175.0
endloop
endfacet
facet normal -1.0 -2.76244406765054e-16 0.0
outer loop
vertex 426.915908790748 -199.653187793295 175.0
vertex 427.596710781492 -204.824392314443 0.0
vertex 427.596710781492 -204.824392314443 175.0
endloop
endfacet
facet normal -0.965925826289069 -0.25881904510252 0.0
outer loop
vertex 427.596710781492 -204.824392314443 0.0
vertex 426.915908790748 -199.653187793295 175.0
vertex 426.915908790748 -199.653187793295 0.0
endloop
endfacet
facet normal -0.707106781186551 -0.707106781186544 0.0
outer loop
vertex 458.563170680326 -187.985925903716 175.0
vertex 461.185327953191 -191.403187793295 2.99999999999999
vertex 461.185327953191 -191.403187793295 175.0
endloop
endfacet
facet normal -0.866025403784441 -0.499999999999995 0.0
outer loop
vertex 461.185327953191 -191.403187793295 2.99999999999999
vertex 458.563170680326 -187.985925903716 175.0
vertex 458.563170680326 -187.985925903716 2.99999999999999
endloop
endfacet
facet normal 0.5 0.866025403784439 0.0
outer loop
vertex 438.645908790748 -213.942606955738 175.0
vertex 442.625394546556 -215.590963927064 2.99999999999999
vertex 438.645908790748 -213.942606955738 2.99999999999999
endloop
endfacet
facet normal 0.258819045102522 0.965925826289068 0.0
outer loop
vertex 442.625394546556 -215.590963927064 2.99999999999999
vertex 438.645908790748 -213.942606955738 175.0
vertex 442.625394546556 -215.590963927064 175.0
endloop
endfacet
facet normal 0.5 -0.866025403784439 0.0
outer loop
vertex 438.645908790748 -185.363768630851 175.0
vertex 435.22864690117 -187.985925903716 2.99999999999999
vertex 438.645908790748 -185.363768630851 2.99999999999999
endloop
endfacet
facet normal 0.707106781186545 -0.70710678118655 0.0
outer loop
vertex 435.22864690117 -187.985925903716 2.99999999999999
vertex 438.645908790748 -185.363768630851 175.0
vertex 435.22864690117 -187.985925903716 175.0
endloop
endfacet
facet normal -0.5 0.866025403784439 0.0
outer loop
vertex 436.905908790748 -182.350000225681 175.0
vertex 441.724704269599 -180.353989784039 0.0
vertex 436.905908790748 -182.350000225681 0.0
endloop
endfacet
facet normal -0.258819045102522 0.965925826289068 0.0
outer loop
vertex 441.724704269599 -180.353989784039 0.0
vertex 436.905908790748 -182.350000225681 175.0
vertex 441.724704269599 -180.353989784039 175.0
endloop
endfacet
facet normal 0.258819045102519 0.965925826289069 0.0
outer loop
vertex 452.067113311896 -180.353989784039 175.0
vertex 456.885908790748 -182.350000225681 0.0
vertex 452.067113311896 -180.353989784039 0.0
endloop
endfacet
facet normal 0.500000000000002 0.866025403784438 0.0
outer loop
vertex 456.885908790748 -182.350000225681 0.0
vertex 452.067113311896 -180.353989784039 175.0
vertex 456.885908790748 -182.350000225681 175.0
endloop
endfacet
facet normal 0.0 0.0 1.0
outer loop
vertex 430.958132656978 -203.923702037486 2.99999999999999
vertex 430.958132656978 -195.382673549103 2.99999999999999
vertex 430.395908790748 -199.653187793295 2.99999999999999
endloop
endfacet
facet normal 0.0 0.0 1.0
outer loop
vertex 430.958132656978 -195.382673549103 2.99999999999999
vertex 430.958132656978 -203.923702037486 2.99999999999999
vertex 432.606489628304 -207.903187793295 2.99999999999999
endloop
endfacet
facet normal 0.0 0.0 1.0
outer loop
vertex 430.958132656978 -195.382673549103 2.99999999999999
vertex 432.606489628304 -207.903187793295 2.99999999999999
vertex 432.606489628304 -191.403187793295 2.99999999999999
endloop
endfacet
facet normal 0.0 0.0 1.0
outer loop
vertex 432.606489628304 -191.403187793295 2.99999999999999
vertex 432.606489628304 -207.903187793295 2.99999999999999
vertex 435.22864690117 -187.985925903716 2.99999999999999
endloop
endfacet
facet normal 0.0 0.0 1.0
outer loop
vertex 435.22864690117 -187.985925903716 2.99999999999999
vertex 432.606489628304 -207.903187793295 2.99999999999999
vertex 435.22864690117 -211.320449682873 2.99999999999999
endloop
endfacet
facet normal 0.0 0.0 1.0
outer loop
vertex 435.22864690117 -187.985925903716 2.99999999999999
vertex 435.22864690117 -211.320449682873 2.99999999999999
vertex 438.645908790748 -213.942606955738 2.99999999999999
endloop
endfacet
facet normal 0.0 0.0 1.0
outer loop
vertex 435.22864690117 -187.985925903716 2.99999999999999
vertex 438.645908790748 -213.942606955738 2.99999999999999
vertex 438.645908790748 -185.363768630851 2.99999999999999
endloop
endfacet
facet normal 0.0 0.0 1.0
outer loop
vertex 438.645908790748 -185.363768630851 2.99999999999999
vertex 438.645908790748 -213.942606955738 2.99999999999999
vertex 442.625394546556 -215.590963927064 2.99999999999999
endloop
endfacet
facet normal 0.0 0.0 1.0
outer loop
vertex 438.645908790748 -185.363768630851 2.99999999999999
vertex 442.625394546556 -215.590963927064 2.99999999999999
vertex 442.625394546556 -183.715411659525 2.99999999999999
endloop
endfacet
facet normal 0.0 0.0 1.0
outer loop
vertex 442.625394546556 -183.715411659525 2.99999999999999
vertex 442.625394546556 -215.590963927064 2.99999999999999
vertex 446.895908790748 -216.153187793295 2.99999999999999
endloop
endfacet
facet normal 0.0 0.0 1.0
outer loop
vertex 442.625394546556 -183.715411659525 2.99999999999999
vertex 446.895908790748 -216.153187793295 2.99999999999999
vertex 446.895908790748 -183.153187793295 2.99999999999999
endloop
endfacet
facet normal 0.0 0.0 1.0
outer loop
vertex 446.895908790748 -183.153187793295 2.99999999999999
vertex 446.895908790748 -216.153187793295 2.99999999999999
vertex 451.166423034939 -215.590963927064 2.99999999999999
endloop
endfacet
facet normal 0.0 0.0 1.0
outer loop
vertex 446.895908790748 -183.153187793295 2.99999999999999
vertex 451.166423034939 -215.590963927064 2.99999999999999
vertex 451.166423034939 -183.715411659525 2.99999999999999
endloop
endfacet
facet normal 0.0 0.0 1.0
outer loop
vertex 451.166423034939 -183.715411659525 2.99999999999999
vertex 451.166423034939 -215.590963927064 2.99999999999999
vertex 455.145908790748 -213.942606955738 2.99999999999999
endloop
endfacet
facet normal 0.0 0.0 1.0
outer loop
vertex 451.166423034939 -183.715411659525 2.99999999999999
vertex 455.145908790748 -213.942606955738 2.99999999999999
vertex 455.145908790748 -185.363768630851 2.99999999999999
endloop
endfacet
facet normal 0.0 0.0 1.0
outer loop
vertex 455.145908790748 -185.363768630851 2.99999999999999
vertex 455.145908790748 -213.942606955738 2.99999999999999
vertex 458.563170680326 -211.320449682873 2.99999999999999
endloop
endfacet
facet normal 0.0 0.0 1.0
outer loop
vertex 455.145908790748 -185.363768630851 2.99999999999999
vertex 458.563170680326 -211.320449682873 2.99999999999999
vertex 458.563170680326 -187.985925903716 2.99999999999999
endloop
endfacet
facet normal 0.0 0.0 1.0
outer loop
vertex 458.563170680326 -187.985925903716 2.99999999999999
vertex 458.563170680326 -211.320449682873 2.99999999999999
vertex 461.185327953191 -207.903187793295 2.99999999999999
endloop
endfacet
facet normal 0.0 0.0 1.0
outer loop
vertex 458.563170680326 -187.985925903716 2.99999999999999
vertex 461.185327953191 -207.903187793295 2.99999999999999
vertex 461.185327953191 -191.403187793295 2.99999999999999
endloop
endfacet
facet normal 0.0 0.0 1.0
outer loop
vertex 461.185327953191 -191.403187793295 2.99999999999999
vertex 461.185327953191 -207.903187793295 2.99999999999999
vertex 462.833684924517 -195.382673549103 2.99999999999999
endloop
endfacet
facet normal 0.0 0.0 1.0
outer loop
vertex 462.833684924517 -195.382673549103 2.99999999999999
vertex 461.185327953191 -207.903187793295 2.99999999999999
vertex 462.833684924517 -203.923702037486 2.99999999999999
endloop
endfacet
facet normal 0.0 0.0 1.0
outer loop
vertex 462.833684924517 -195.382673549103 2.99999999999999
vertex 462.833684924517 -203.923702037486 2.99999999999999
vertex 463.395908790748 -199.653187793295 2.99999999999999
endloop
endfacet
facet normal 1.0 -3.4753328593023e-16 0.0
outer loop
vertex 430.395908790748 -199.653187793295 2.99999999999999
vertex 430.958132656978 -203.923702037486 175.0
vertex 430.958132656978 -203.923702037486 2.99999999999999
endloop
endfacet
facet normal 0.965925826289067 0.258819045102526 0.0
outer loop
vertex 430.958132656978 -203.923702037486 175.0
vertex 430.395908790748 -199.653187793295 2.99999999999999
vertex 430.395908790748 -199.653187793295 175.0
endloop
endfacet
facet normal -0.5 0.866025403784439 0.0
outer loop
vertex 455.145908790748 -213.942606955738 175.0
vertex 458.563170680326 -211.320449682873 2.99999999999999
vertex 455.145908790748 -213.942606955738 2.99999999999999
endloop
endfacet
facet normal -0.707106781186545 0.70710678118655 0.0
outer loop
vertex 458.563170680326 -211.320449682873 2.99999999999999
vertex 455.145908790748 -213.942606955738 175.0
vertex 458.563170680326 -211.320449682873 175.0
endloop
endfacet
facet normal 0.707106781186549 0.707106781186546 0.0
outer loop
vertex 461.023902278855 -185.525194305187 0.0
vertex 464.199096358361 -189.663187793295 175.0
vertex 464.199096358361 -189.663187793295 0.0
endloop
endfacet
facet normal 0.866025403784439 0.499999999999999 0.0
outer loop
vertex 464.199096358361 -189.663187793295 175.0
vertex 461.023902278855 -185.525194305187 0.0
vertex 461.023902278855 -185.525194305187 175.0
endloop
endfacet
facet normal -0.258819045102519 -0.965925826289069 0.0
outer loop
vertex 441.724704269599 -218.95238580255 175.0
vertex 436.905908790748 -216.956375360908 0.0
vertex 441.724704269599 -218.95238580255 0.0
endloop
endfacet
facet normal -0.500000000000002 -0.866025403784438 0.0
outer loop
vertex 436.905908790748 -216.956375360908 0.0
vertex 441.724704269599 -218.95238580255 175.0
vertex 436.905908790748 -216.956375360908 175.0
endloop
endfacet
facet normal -0.707106781186551 -0.707106781186544 0.0
outer loop
vertex 458.563170680326 -187.985925903716 175.0
vertex 455.145908790748 -185.363768630851 2.99999999999999
vertex 458.563170680326 -187.985925903716 2.99999999999999
endloop
endfacet
facet normal -0.5 -0.866025403784439 0.0
outer loop
vertex 455.145908790748 -185.363768630851 2.99999999999999
vertex 458.563170680326 -187.985925903716 175.0
vertex 455.145908790748 -185.363768630851 175.0
endloop
endfacet
facet normal -0.500000000000002 -0.866025403784438 0.0
outer loop
vertex 436.905908790748 -216.956375360908 175.0
vertex 432.76791530264 -213.781181281402 0.0
vertex 436.905908790748 -216.956375360908 0.0
endloop
endfacet
facet normal -0.707106781186549 -0.707106781186546 0.0
outer loop
vertex 432.76791530264 -213.781181281402 0.0
vertex 436.905908790748 -216.956375360908 175.0
vertex 432.76791530264 -213.781181281402 175.0
endloop
endfacet
facet normal 0.0 -1.0 0.0
outer loop
vertex 446.895908790748 -183.153187793295 175.0
vertex 442.625394546556 -183.715411659525 2.99999999999999
vertex 446.895908790748 -183.153187793295 2.99999999999999
endloop
endfacet
facet normal 0.258819045102522 -0.965925826289068 0.0
outer loop
vertex 442.625394546556 -183.715411659525 2.99999999999999
vertex 446.895908790748 -183.153187793295 175.0
vertex 442.625394546556 -183.715411659525 175.0
endloop
endfacet
facet normal 0.866025403784441 0.499999999999995 0.0
outer loop
vertex 432.606489628304 -207.903187793295 2.99999999999999
vertex 435.22864690117 -211.320449682873 175.0
vertex 435.22864690117 -211.320449682873 2.99999999999999
endloop
endfacet
facet normal 0.707106781186551 0.707106781186544 0.0
outer loop
vertex 435.22864690117 -211.320449682873 175.0
vertex 432.606489628304 -207.903187793295 2.99999999999999
vertex 432.606489628304 -207.903187793295 175.0
endloop
endfacet
facet normal 0.258819045102522 -0.965925826289068 0.0
outer loop
vertex 442.625394546556 -183.715411659525 175.0
vertex 438.645908790748 -185.363768630851 2.99999999999999
vertex 442.625394546556 -183.715411659525 2.99999999999999
endloop
endfacet
facet normal 0.5 -0.866025403784439 0.0
outer loop
vertex 438.645908790748 -185.363768630851 2.99999999999999
vertex 442.625394546556 -183.715411659525 175.0
vertex 438.645908790748 -185.363768630851 175.0
endloop
endfacet
facet normal -2.34023779559015e-32 -1.17595003466359e-30 1.0
outer loop
vertex 427.596710781492 -204.824392314443 175.0
vertex 427.596710781492 -194.481983272146 175.0
vertex 426.915908790748 -199.653187793295 175.0
endloop
endfacet
facet normal -2.34023779559015e-32 -1.17595003466359e-30 1.0
outer loop
vertex 427.596710781492 -194.481983272146 175.0
vertex 427.596710781492 -204.824392314443 175.0
vertex 429.592721223135 -209.643187793295 175.0
endloop
endfacet
facet normal -2.34023779559015e-32 -1.17595003466359e-30 1.0
outer loop
vertex 427.596710781492 -194.481983272146 175.0
vertex 429.592721223135 -209.643187793295 175.0
vertex 429.592721223135 -189.663187793295 175.0
endloop
endfacet
facet normal -2.34023779559015e-32 -1.17595003466359e-30 1.0
outer loop
vertex 429.592721223135 -189.663187793295 175.0
vertex 429.592721223135 -209.643187793295 175.0
vertex 430.395908790748 -199.653187793295 175.0
endloop
endfacet
facet normal -2.34023779559015e-32 -1.17595003466359e-30 1.0
outer loop
vertex 430.395908790748 -199.653187793295 175.0
vertex 429.592721223135 -209.643187793295 175.0
vertex 430.958132656978 -203.923702037486 175.0
endloop
endfacet
facet normal -2.34023779559015e-32 -1.17595003466359e-30 1.0
outer loop
vertex 430.958132656978 -203.923702037486 175.0
vertex 429.592721223135 -209.643187793295 175.0
vertex 432.76791530264 -213.781181281402 175.0
endloop
endfacet
facet normal -2.34023779559015e-32 -1.17595003466359e-30 1.0
outer loop
vertex 430.958132656978 -203.923702037486 175.0
vertex 432.76791530264 -213.781181281402 175.0
vertex 432.606489628304 -207.903187793295 175.0
endloop
endfacet
facet normal -2.34023779559015e-32 -1.17595003466359e-30 1.0
outer loop
vertex 432.606489628304 -207.903187793295 175.0
vertex 432.76791530264 -213.781181281402 175.0
vertex 435.22864690117 -211.320449682873 175.0
endloop
endfacet
facet normal -2.34023779559015e-32 -1.17595003466359e-30 1.0
outer loop
vertex 435.22864690117 -211.320449682873 175.0
vertex 432.76791530264 -213.781181281402 175.0
vertex 436.905908790748 -216.956375360908 175.0
endloop
endfacet
facet normal -2.34023779559015e-32 -1.17595003466359e-30 1.0
outer loop
vertex 435.22864690117 -211.320449682873 175.0
vertex 436.905908790748 -216.956375360908 175.0
vertex 438.645908790748 -213.942606955738 175.0
endloop
endfacet
facet normal -2.34023779559015e-32 -1.17595003466359e-30 1.0
outer loop
vertex 438.645908790748 -213.942606955738 175.0
vertex 436.905908790748 -216.956375360908 175.0
vertex 441.724704269599 -218.95238580255 175.0
endloop
endfacet
facet normal -2.34023779559015e-32 -1.17595003466359e-30 1.0
outer loop
vertex 438.645908790748 -213.942606955738 175.0
vertex 441.724704269599 -218.95238580255 175.0
vertex 442.625394546556 -215.590963927064 175.0
endloop
endfacet
facet normal -2.34023779559015e-32 -1.17595003466359e-30 1.0
outer loop
vertex 442.625394546556 -215.590963927064 175.0
vertex 441.724704269599 -218.95238580255 175.0
vertex 446.895908790748 -219.633187793295 175.0
endloop
endfacet
facet normal -2.34023779559015e-32 -1.17595003466359e-30 1.0
outer loop
vertex 442.625394546556 -215.590963927064 175.0
vertex 446.895908790748 -219.633187793295 175.0
vertex 446.895908790748 -216.153187793295 175.0
endloop
endfacet
facet normal -2.34023779559015e-32 -1.17595003466359e-30 1.0
outer loop
vertex 446.895908790748 -216.153187793295 175.0
vertex 446.895908790748 -219.633187793295 175.0
vertex 452.067113311896 -218.95238580255 175.0
endloop
endfacet
facet normal -2.34023779559015e-32 -1.17595003466359e-30 1.0
outer loop
vertex 446.895908790748 -216.153187793295 175.0
vertex 452.067113311896 -218.95238580255 175.0
vertex 451.166423034939 -215.590963927064 175.0
endloop
endfacet
facet normal -2.34023779559015e-32 -1.17595003466359e-30 1.0
outer loop
vertex 451.166423034939 -215.590963927064 175.0
vertex 452.067113311896 -218.95238580255 175.0
vertex 455.145908790748 -213.942606955738 175.0
endloop
endfacet
facet normal -2.34023779559015e-32 -1.17595003466359e-30 1.0
outer loop
vertex 455.145908790748 -213.942606955738 175.0
vertex 452.067113311896 -218.95238580255 175.0
vertex 456.885908790748 -216.956375360908 175.0
endloop
endfacet
facet normal -2.34023779559015e-32 -1.17595003466359e-30 1.0
outer loop
vertex 455.145908790748 -213.942606955738 175.0
vertex 456.885908790748 -216.956375360908 175.0
vertex 458.563170680326 -211.320449682873 175.0
endloop
endfacet
facet normal -2.34023779559015e-32 -1.17595003466359e-30 1.0
outer loop
vertex 458.563170680326 -211.320449682873 175.0
vertex 456.885908790748 -216.956375360908 175.0
vertex 461.023902278855 -213.781181281402 175.0
endloop
endfacet
facet normal -2.34023779559015e-32 -1.17595003466359e-30 1.0
outer loop
vertex 458.563170680326 -211.320449682873 175.0
vertex 461.023902278855 -213.781181281402 175.0
vertex 461.185327953191 -207.903187793295 175.0
endloop
endfacet
facet normal -2.34023779559015e-32 -1.17595003466359e-30 1.0
outer loop
vertex 461.185327953191 -207.903187793295 175.0
vertex 461.023902278855 -213.781181281402 175.0
vertex 464.199096358361 -209.643187793295 175.0
endloop
endfacet
facet normal -2.34023779559015e-32 -1.17595003466359e-30 1.0
outer loop
vertex 461.185327953191 -207.903187793295 175.0
vertex 464.199096358361 -209.643187793295 175.0
vertex 462.833684924517 -203.923702037486 175.0
endloop
endfacet
facet normal -2.34023779559015e-32 -1.17595003466359e-30 1.0
outer loop
vertex 462.833684924517 -203.923702037486 175.0
vertex 464.199096358361 -209.643187793295 175.0
vertex 463.395908790748 -199.653187793295 175.0
endloop
endfacet
facet normal -2.34023779559015e-32 -1.17595003466359e-30 1.0
outer loop
vertex 429.592721223135 -189.663187793295 175.0
vertex 430.958132656978 -195.382673549103 175.0
vertex 432.76791530264 -185.525194305187 175.0
endloop
endfacet
facet normal -2.34023779559015e-32 -1.17595003466359e-30 1.0
outer loop
vertex 430.958132656978 -195.382673549103 175.0
vertex 429.592721223135 -189.663187793295 175.0
vertex 430.395908790748 -199.653187793295 175.0
endloop
endfacet
facet normal -2.34023779559015e-32 -1.17595003466359e-30 1.0
outer loop
vertex 432.76791530264 -185.525194305187 175.0
vertex 430.958132656978 -195.382673549103 175.0
vertex 432.606489628304 -191.403187793295 175.0
endloop
endfacet
facet normal -2.34023779559015e-32 -1.17595003466359e-30 1.0
outer loop
vertex 432.76791530264 -185.525194305187 175.0
vertex 432.606489628304 -191.403187793295 175.0
vertex 435.22864690117 -187.985925903716 175.0
endloop
endfacet
facet normal -2.34023779559015e-32 -1.17595003466359e-30 1.0
outer loop
vertex 432.76791530264 -185.525194305187 175.0
vertex 435.22864690117 -187.985925903716 175.0
vertex 436.905908790748 -182.350000225681 175.0
endloop
endfacet
facet normal -2.34023779559015e-32 -1.17595003466359e-30 1.0
outer loop
vertex 436.905908790748 -182.350000225681 175.0
vertex 435.22864690117 -187.985925903716 175.0
vertex 438.645908790748 -185.363768630851 175.0
endloop
endfacet
facet normal -2.34023779559015e-32 -1.17595003466359e-30 1.0
outer loop
vertex 436.905908790748 -182.350000225681 175.0
vertex 438.645908790748 -185.363768630851 175.0
vertex 441.724704269599 -180.353989784039 175.0
endloop
endfacet
facet normal -2.34023779559015e-32 -1.17595003466359e-30 1.0
outer loop
vertex 441.724704269599 -180.353989784039 175.0
vertex 438.645908790748 -185.363768630851 175.0
vertex 442.625394546556 -183.715411659525 175.0
endloop
endfacet
facet normal -2.34023779559015e-32 -1.17595003466359e-30 1.0
outer loop
vertex 441.724704269599 -180.353989784039 175.0
vertex 442.625394546556 -183.715411659525 175.0
vertex 446.895908790748 -179.673187793295 175.0
endloop
endfacet
facet normal -2.34023779559015e-32 -1.17595003466359e-30 1.0
outer loop
vertex 446.895908790748 -179.673187793295 175.0
vertex 442.625394546556 -183.715411659525 175.0
vertex 446.895908790748 -183.153187793295 175.0
endloop
endfacet
facet normal -2.34023779559015e-32 -1.17595003466359e-30 1.0
outer loop
vertex 446.895908790748 -179.673187793295 175.0
vertex 446.895908790748 -183.153187793295 175.0
vertex 451.166423034939 -183.715411659525 175.0
endloop
endfacet
facet normal -2.34023779559015e-32 -1.17595003466359e-30 1.0
outer loop
vertex 446.895908790748 -179.673187793295 175.0
vertex 451.166423034939 -183.715411659525 175.0
vertex 452.067113311896 -180.353989784039 175.0
endloop
endfacet
facet normal -2.34023779559015e-32 -1.17595003466359e-30 1.0
outer loop
vertex 452.067113311896 -180.353989784039 175.0
vertex 451.166423034939 -183.715411659525 175.0
vertex 455.145908790748 -185.363768630851 175.0
endloop
endfacet
facet normal -2.34023779559015e-32 -1.17595003466359e-30 1.0
outer loop
vertex 452.067113311896 -180.353989784039 175.0
vertex 455.145908790748 -185.363768630851 175.0
vertex 456.885908790748 -182.350000225681 175.0
endloop
endfacet
facet normal -2.34023779559015e-32 -1.17595003466359e-30 1.0
outer loop
vertex 456.885908790748 -182.350000225681 175.0
vertex 455.145908790748 -185.363768630851 175.0
vertex 458.563170680326 -187.985925903716 175.0
endloop
endfacet
facet normal -2.34023779559015e-32 -1.17595003466359e-30 1.0
outer loop
vertex 456.885908790748 -182.350000225681 175.0
vertex 458.563170680326 -187.985925903716 175.0
vertex 461.023902278855 -185.525194305187 175.0
endloop
endfacet
facet normal -2.34023779559015e-32 -1.17595003466359e-30 1.0
outer loop
vertex 461.023902278855 -185.525194305187 175.0
vertex 458.563170680326 -187.985925903716 175.0
vertex 461.185327953191 -191.403187793295 175.0
endloop
endfacet
facet normal -2.34023779559015e-32 -1.17595003466359e-30 1.0
outer loop
vertex 461.023902278855 -185.525194305187 175.0
vertex 461.185327953191 -191.403187793295 175.0
vertex 464.199096358361 -189.663187793295 175.0
endloop
endfacet
facet normal -2.34023779559015e-32 -1.17595003466359e-30 1.0
outer loop
vertex 464.199096358361 -189.663187793295 175.0
vertex 461.185327953191 -191.403187793295 175.0
vertex 462.833684924517 -195.382673549103 175.0
endloop
endfacet
facet normal -2.34023779559015e-32 -1.17595003466359e-30 1.0
outer loop
vertex 464.199096358361 -189.663187793295 175.0
vertex 462.833684924517 -195.382673549103 175.0
vertex 463.395908790748 -199.653187793295 175.0
endloop
endfacet
facet normal -2.34023779559015e-32 -1.17595003466359e-30 1.0
outer loop
vertex 464.199096358361 -189.663187793295 175.0
vertex 463.395908790748 -199.653187793295 175.0
vertex 464.199096358361 -209.643187793295 175.0
endloop
endfacet
facet normal -2.34023779559015e-32 -1.17595003466359e-30 1.0
outer loop
vertex 464.199096358361 -189.663187793295 175.0
vertex 464.199096358361 -209.643187793295 175.0
vertex 466.195106800003 -204.824392314443 175.0
endloop
endfacet
facet normal -2.34023779559015e-32 -1.17595003466359e-30 1.0
outer loop
vertex 464.199096358361 -189.663187793295 175.0
vertex 466.195106800003 -204.824392314443 175.0
vertex 466.195106800003 -194.481983272146 175.0
endloop
endfacet
facet normal -2.34023779559015e-32 -1.17595003466359e-30 1.0
outer loop
vertex 466.195106800003 -194.481983272146 175.0
vertex 466.195106800003 -204.824392314443 175.0
vertex 466.875908790748 -199.653187793295 175.0
endloop
endfacet
facet normal 0.866025403784439 0.499999999999999 0.0
outer loop
vertex 464.199096358361 -189.663187793295 0.0
vertex 466.195106800003 -194.481983272146 175.0
vertex 466.195106800003 -194.481983272146 0.0
endloop
endfacet
facet normal 0.965925826289069 0.25881904510252 0.0
outer loop
vertex 466.195106800003 -194.481983272146 175.0
vertex 464.199096358361 -189.663187793295 0.0
vertex 464.199096358361 -189.663187793295 175.0
endloop
endfacet
facet normal 0.500000000000002 0.866025403784438 0.0
outer loop
vertex 456.885908790748 -182.350000225681 175.0
vertex 461.023902278855 -185.525194305187 0.0
vertex 456.885908790748 -182.350000225681 0.0
endloop
endfacet
facet normal 0.707106781186549 0.707106781186546 0.0
outer loop
vertex 461.023902278855 -185.525194305187 0.0
vertex 456.885908790748 -182.350000225681 175.0
vertex 461.023902278855 -185.525194305187 175.0
endloop
endfacet
facet normal 0.0 -1.0 0.0
outer loop
vertex 446.895908790748 -219.633187793295 175.0
vertex 441.724704269599 -218.95238580255 0.0
vertex 446.895908790748 -219.633187793295 0.0
endloop
endfacet
facet normal -0.258819045102519 -0.965925826289069 0.0
outer loop
vertex 441.724704269599 -218.95238580255 0.0
vertex 446.895908790748 -219.633187793295 175.0
vertex 441.724704269599 -218.95238580255 175.0
endloop
endfacet
facet normal 0.499999999999999 -0.866025403784439 0.0
outer loop
vertex 456.885908790748 -216.956375360908 175.0
vertex 452.067113311896 -218.95238580255 0.0
vertex 456.885908790748 -216.956375360908 0.0
endloop
endfacet
facet normal 0.258819045102522 -0.965925826289068 0.0
outer loop
vertex 452.067113311896 -218.95238580255 0.0
vertex 456.885908790748 -216.956375360908 175.0
vertex 452.067113311896 -218.95238580255 175.0
endloop
endfacet
facet normal -1.0 0.0 0.0
outer loop
vertex 463.395908790748 -199.653187793295 175.0
vertex 462.833684924517 -203.923702037486 2.99999999999999
vertex 462.833684924517 -203.923702037486 175.0
endloop
endfacet
facet normal -0.965925826289069 0.258819045102517 0.0
outer loop
vertex 462.833684924517 -203.923702037486 2.99999999999999
vertex 463.395908790748 -199.653187793295 175.0
vertex 463.395908790748 -199.653187793295 2.99999999999999
endloop
endfacet
facet normal 0.258819045102522 -0.965925826289068 0.0
outer loop
vertex 452.067113311896 -218.95238580255 175.0
vertex 446.895908790748 -219.633187793295 0.0
vertex 452.067113311896 -218.95238580255 0.0
endloop
endfacet
facet normal 0.0 -1.0 0.0
outer loop
vertex 446.895908790748 -219.633187793295 0.0
vertex 452.067113311896 -218.95238580255 175.0
vertex 446.895908790748 -219.633187793295 175.0
endloop
endfacet
facet normal 0.866025403784443 -0.499999999999993 0.0
outer loop
vertex 432.606489628304 -191.403187793295 2.99999999999999
vertex 430.958132656978 -195.382673549103 175.0
vertex 430.958132656978 -195.382673549103 2.99999999999999
endloop
endfacet
facet normal 0.96592582628907 -0.258819045102516 0.0
outer loop
vertex 430.958132656978 -195.382673549103 175.0
vertex 432.606489628304 -191.403187793295 2.99999999999999
vertex 432.606489628304 -191.403187793295 175.0
endloop
endfacet
facet normal -0.707106781186546 0.707106781186549 0.0
outer loop
vertex 432.76791530264 -185.525194305187 175.0
vertex 436.905908790748 -182.350000225681 0.0
vertex 432.76791530264 -185.525194305187 0.0
endloop
endfacet
facet normal -0.5 0.866025403784439 0.0
outer loop
vertex 436.905908790748 -182.350000225681 0.0
vertex 432.76791530264 -185.525194305187 175.0
vertex 436.905908790748 -182.350000225681 175.0
endloop
endfacet
facet normal -0.866025403784441 -0.499999999999995 0.0
outer loop
vertex 461.185327953191 -191.403187793295 175.0
vertex 462.833684924517 -195.382673549103 2.99999999999999
vertex 462.833684924517 -195.382673549103 175.0
endloop
endfacet
facet normal -0.965925826289067 -0.258819045102526 0.0
outer loop
vertex 462.833684924517 -195.382673549103 2.99999999999999
vertex 461.185327953191 -191.403187793295 175.0
vertex 461.185327953191 -191.403187793295 2.99999999999999
endloop
endfacet
facet normal -0.258819045102522 0.965925826289068 0.0
outer loop
vertex 451.166423034939 -215.590963927064 175.0
vertex 455.145908790748 -213.942606955738 2.99999999999999
vertex 451.166423034939 -215.590963927064 2.99999999999999
endloop
endfacet
facet normal -0.5 0.866025403784439 0.0
outer loop
vertex 455.145908790748 -213.942606955738 2.99999999999999
vertex 451.166423034939 -215.590963927064 175.0
vertex 455.145908790748 -213.942606955738 175.0
endloop
endfacet
facet normal -0.965925826289067 -0.258819045102526 0.0
outer loop
vertex 462.833684924517 -195.382673549103 175.0
vertex 463.395908790748 -199.653187793295 2.99999999999999
vertex 463.395908790748 -199.653187793295 175.0
endloop
endfacet
facet normal -1.0 0.0 0.0
outer loop
vertex 463.395908790748 -199.653187793295 2.99999999999999
vertex 462.833684924517 -195.382673549103 175.0
vertex 462.833684924517 -195.382673549103 2.99999999999999
endloop
endfacet
facet normal 0.0 0.0 -1.0
outer loop
vertex 427.596710781492 -194.481983272146 0.0
vertex 427.596710781492 -204.824392314443 0.0
vertex 426.915908790748 -199.653187793295 0.0
endloop
endfacet
facet normal 0.0 0.0 -1.0
outer loop
vertex 427.596710781492 -204.824392314443 0.0
vertex 427.596710781492 -194.481983272146 0.0
vertex 429.592721223135 -189.663187793295 0.0
endloop
endfacet
facet normal 0.0 0.0 -1.0
outer loop
vertex 427.596710781492 -204.824392314443 0.0
vertex 429.592721223135 -189.663187793295 0.0
vertex 429.592721223135 -209.643187793295 0.0
endloop
endfacet
facet normal 0.0 0.0 -1.0
outer loop
vertex 429.592721223135 -209.643187793295 0.0
vertex 429.592721223135 -189.663187793295 0.0
vertex 432.76791530264 -185.525194305187 0.0
endloop
endfacet
facet normal 0.0 0.0 -1.0
outer loop
vertex 429.592721223135 -209.643187793295 0.0
vertex 432.76791530264 -185.525194305187 0.0
vertex 432.76791530264 -213.781181281402 0.0
endloop
endfacet
facet normal 0.0 0.0 -1.0
outer loop
vertex 432.76791530264 -213.781181281402 0.0
vertex 432.76791530264 -185.525194305187 0.0
vertex 436.905908790748 -182.350000225681 0.0
endloop
endfacet
facet normal 0.0 0.0 -1.0
outer loop
vertex 432.76791530264 -213.781181281402 0.0
vertex 436.905908790748 -182.350000225681 0.0
vertex 436.905908790748 -216.956375360908 0.0
endloop
endfacet
facet normal 0.0 0.0 -1.0
outer loop
vertex 436.905908790748 -216.956375360908 0.0
vertex 436.905908790748 -182.350000225681 0.0
vertex 441.724704269599 -218.95238580255 0.0
endloop
endfacet
facet normal 0.0 0.0 -1.0
outer loop
vertex 441.724704269599 -218.95238580255 0.0
vertex 436.905908790748 -182.350000225681 0.0
vertex 441.724704269599 -180.353989784039 0.0
endloop
endfacet
facet normal 0.0 0.0 -1.0
outer loop
vertex 441.724704269599 -218.95238580255 0.0
vertex 441.724704269599 -180.353989784039 0.0
vertex 446.895908790748 -179.673187793295 0.0
endloop
endfacet
facet normal 0.0 0.0 -1.0
outer loop
vertex 441.724704269599 -218.95238580255 0.0
vertex 446.895908790748 -179.673187793295 0.0
vertex 446.895908790748 -219.633187793295 0.0
endloop
endfacet
facet normal 0.0 0.0 -1.0
outer loop
vertex 446.895908790748 -219.633187793295 0.0
vertex 446.895908790748 -179.673187793295 0.0
vertex 452.067113311896 -180.353989784039 0.0
endloop
endfacet
facet normal 0.0 0.0 -1.0
outer loop
vertex 446.895908790748 -219.633187793295 0.0
vertex 452.067113311896 -180.353989784039 0.0
vertex 452.067113311896 -218.95238580255 0.0
endloop
endfacet
facet normal 0.0 0.0 -1.0
outer loop
vertex 452.067113311896 -218.95238580255 0.0
vertex 452.067113311896 -180.353989784039 0.0
vertex 456.885908790748 -182.350000225681 0.0
endloop
endfacet
facet normal 0.0 0.0 -1.0
outer loop
vertex 452.067113311896 -218.95238580255 0.0
vertex 456.885908790748 -182.350000225681 0.0
vertex 456.885908790748 -216.956375360908 0.0
endloop
endfacet
facet normal 0.0 0.0 -1.0
outer loop
vertex 456.885908790748 -216.956375360908 0.0
vertex 456.885908790748 -182.350000225681 0.0
vertex 461.023902278855 -213.781181281402 0.0
endloop
endfacet
facet normal 0.0 0.0 -1.0
outer loop
vertex 461.023902278855 -213.781181281402 0.0
vertex 456.885908790748 -182.350000225681 0.0
vertex 461.023902278855 -185.525194305187 0.0
endloop
endfacet
facet normal 0.0 0.0 -1.0
outer loop
vertex 461.023902278855 -213.781181281402 0.0
vertex 461.023902278855 -185.525194305187 0.0
vertex 464.199096358361 -189.663187793295 0.0
endloop
endfacet
facet normal 0.0 0.0 -1.0
outer loop
vertex 461.023902278855 -213.781181281402 0.0
vertex 464.199096358361 -189.663187793295 0.0
vertex 464.199096358361 -209.643187793295 0.0
endloop
endfacet
facet normal 0.0 0.0 -1.0
outer loop
vertex 464.199096358361 -209.643187793295 0.0
vertex 464.199096358361 -189.663187793295 0.0
vertex 466.195106800003 -194.481983272146 0.0
endloop
endfacet
facet normal 0.0 0.0 -1.0
outer loop
vertex 464.199096358361 -209.643187793295 0.0
vertex 466.195106800003 -194.481983272146 0.0
vertex 466.195106800003 -204.824392314443 0.0
endloop
endfacet
facet normal 0.0 0.0 -1.0
outer loop
vertex 466.195106800003 -204.824392314443 0.0
vertex 466.195106800003 -194.481983272146 0.0
vertex 466.875908790748 -199.653187793295 0.0
endloop
endfacet
facet normal 0.0 1.0 0.0
outer loop
vertex 446.895908790748 -216.153187793295 175.0
vertex 451.166423034939 -215.590963927064 2.99999999999999
vertex 446.895908790748 -216.153187793295 2.99999999999999
endloop
endfacet
facet normal -0.258819045102522 0.965925826289068 0.0
outer loop
vertex 451.166423034939 -215.590963927064 2.99999999999999
vertex 446.895908790748 -216.153187793295 175.0
vertex 451.166423034939 -215.590963927064 175.0
endloop
endfacet
facet normal -0.965925826289069 -0.25881904510252 0.0
outer loop
vertex 427.596710781492 -204.824392314443 175.0
vertex 429.592721223135 -209.643187793295 0.0
vertex 429.592721223135 -209.643187793295 175.0
endloop
endfacet
facet normal -0.866025403784439 -0.499999999999999 0.0
outer loop
vertex 429.592721223135 -209.643187793295 0.0
vertex 427.596710781492 -204.824392314443 175.0
vertex 427.596710781492 -204.824392314443 0.0
endloop
endfacet
facet normal -0.866025403784442 0.499999999999994 0.0
outer loop
vertex 461.185327953191 -207.903187793295 175.0
vertex 458.563170680326 -211.320449682873 2.99999999999999
vertex 458.563170680326 -211.320449682873 175.0
endloop
endfacet
facet normal -0.707106781186545 0.70710678118655 0.0
outer loop
vertex 458.563170680326 -211.320449682873 2.99999999999999
vertex 461.185327953191 -207.903187793295 175.0
vertex 461.185327953191 -207.903187793295 2.99999999999999
endloop
endfacet
facet normal -0.965925826289069 0.258819045102517 0.0
outer loop
vertex 462.833684924517 -203.923702037486 175.0
vertex 461.185327953191 -207.903187793295 2.99999999999999
vertex 461.185327953191 -207.903187793295 175.0
endloop
endfacet
facet normal -0.866025403784442 0.499999999999994 0.0
outer loop
vertex 461.185327953191 -207.903187793295 2.99999999999999
vertex 462.833684924517 -203.923702037486 175.0
vertex 462.833684924517 -203.923702037486 2.99999999999999
endloop
endfacet
facet normal 0.866025403784439 -0.499999999999999 0.0
outer loop
vertex 464.199096358361 -209.643187793295 0.0
vertex 461.023902278855 -213.781181281402 175.0
vertex 461.023902278855 -213.781181281402 0.0
endloop
endfacet
facet normal 0.707106781186545 -0.70710678118655 0.0
outer loop
vertex 461.023902278855 -213.781181281402 175.0
vertex 464.199096358361 -209.643187793295 0.0
vertex 464.199096358361 -209.643187793295 175.0
endloop
endfacet
endsolid Heximon
